# xmcd
#
# Track frame offsets:
#	150
#	20525
#	47498
#	72048
#	96960
#	118035
#	132194
#	149823
#	166976
#	199370
#	226204
#	241897
#	261931
#
# Disc length: 3807 seconds
# Revision: 0
# Processed by: cddbd v1.5.2PL0 Copyright (c) Steve Scherf et al.
# Submitted via: dBpowerAMP V12.0
#
DISCID=ba0edd0d
DTITLE=Jonn Del Toro Richardson and Sean Carney - Drivin' Me Wild
DYEAR=2013
DGENRE=Blues
TTITLE0=Tell Me Do You Love Me
TTITLE1=Drivin' Me Wild
TTITLE2=Lookin' For My Baby
TTITLE3=Cloud Nine
TTITLE4=A Man Like Me
TTITLE5=Sit Back Baby
TTITLE6=Chocolate Jesus
TTITLE7=Slow Down
TTITLE8=Hold Me
TTITLE9=Come On With It
TTITLE10=Shake That Thang
TTITLE11=Peace Of Mind
TTITLE12=One For J.B.
EXTD=
EXTT0=
EXTT1=
EXTT2=
EXTT3=
EXTT4=
EXTT5=
EXTT6=
EXTT7=
EXTT8=
EXTT9=
EXTT10=
EXTT11=
EXTT12=
PLAYORDER=
